<?xml version="1.0" encoding="UTF-8" standalone="no"?>
<!DOCTYPE svg PUBLIC "-//W3C//DTD SVG 1.1//EN"
 "http://www.w3.org/Graphics/SVG/1.1/DTD/svg11.dtd">
<!-- Generated by graphviz version 2.47.0 (20210316.0004)
 -->
<!-- Title: dependencies Pages: 1 -->
<svg width="504pt" height="287pt"
 viewBox="0.00 0.00 504.00 287.00" xmlns="http://www.w3.org/2000/svg" xmlns:xlink="http://www.w3.org/1999/xlink">
<g id="graph0" class="graph" transform="scale(1 1) rotate(0) translate(4 283)">
<title>dependencies</title>
<polygon fill="white" stroke="transparent" points="-4,4 -4,-283 500,-283 500,4 -4,4"/>
<text text-anchor="start" x="227.01" y="-42.4" font-family="Times-12" font-weight="bold" font-size="14.00">Legend</text>
<polygon fill="#ffffb3" stroke="transparent" points="14,-10 14,-30 34,-30 34,-10 14,-10"/>
<text text-anchor="start" x="37.63" y="-15.4" font-family="Times-12" font-size="14.00"> &#160;Declarations</text>
<polygon fill="#8dd3c7" stroke="transparent" points="127,-10 127,-30 147,-30 147,-10 127,-10"/>
<text text-anchor="start" x="150.73" y="-15.4" font-family="Times-12" font-size="14.00"> &#160;Module</text>
<polygon fill="#80b1d3" stroke="transparent" points="213,-10 213,-30 233,-30 233,-10 213,-10"/>
<text text-anchor="start" x="236.78" y="-15.4" font-family="Times-12" font-size="14.00"> &#160;Bootstrap</text>
<polygon fill="#fdb462" stroke="transparent" points="310,-10 310,-30 330,-30 330,-10 310,-10"/>
<text text-anchor="start" x="333.67" y="-15.4" font-family="Times-12" font-size="14.00"> &#160;Providers</text>
<polygon fill="#fb8072" stroke="transparent" points="406,-10 406,-30 426,-30 426,-10 406,-10"/>
<text text-anchor="start" x="429.73" y="-15.4" font-family="Times-12" font-size="14.00"> &#160;Exports</text>
<g id="clust1" class="cluster">
<title>cluster_AppModule</title>
<polygon fill="none" stroke="black" stroke-dasharray="1,5" points="21,-70 21,-263 335,-263 335,-70 21,-70"/>
</g>
<g id="clust3" class="cluster">
<title>cluster_AppModule_imports</title>
<polygon fill="none" stroke="black" points="204,-143 204,-195 318,-195 318,-143 204,-143"/>
</g>
<g id="clust6" class="cluster">
<title>cluster_AppModule_providers</title>
<polygon fill="none" stroke="black" points="29,-78 29,-130 327,-130 327,-78 29,-78"/>
</g>
<g id="clust7" class="cluster">
<title>cluster_PrismaModule</title>
<polygon fill="none" stroke="black" stroke-dasharray="1,5" points="343,-203 343,-271 475,-271 475,-203 343,-203"/>
</g>
<g id="clust10" class="cluster">
<title>cluster_PrismaModule_exports</title>
<polygon fill="none" stroke="black" points="351,-211 351,-263 467,-263 467,-211 351,-211"/>
</g>
<!-- PrismaModule -->
<g id="node1" class="node">
<title>PrismaModule</title>
<polygon fill="#8dd3c7" stroke="black" points="310.43,-187 307.43,-191 286.43,-191 283.43,-187 211.57,-187 211.57,-151 310.43,-151 310.43,-187"/>
<text text-anchor="middle" x="261" y="-164.8" font-family="Times,serif" font-size="14.00">PrismaModule</text>
</g>
<!-- AppModule -->
<g id="node2" class="node">
<title>AppModule</title>
<polygon fill="#8dd3c7" stroke="black" points="234.66,-255 231.66,-259 210.66,-259 207.66,-255 151.34,-255 151.34,-219 234.66,-219 234.66,-255"/>
<text text-anchor="middle" x="193" y="-232.8" font-family="Times,serif" font-size="14.00">AppModule</text>
</g>
<!-- PrismaModule&#45;&gt;AppModule -->
<g id="edge1" class="edge">
<title>PrismaModule&#45;&gt;AppModule</title>
<path fill="none" stroke="black" d="M223.31,-187.22C223.31,-187.22 223.31,-208.73 223.31,-208.73"/>
<polygon fill="black" stroke="black" points="219.81,-208.73 223.31,-218.73 226.81,-208.73 219.81,-208.73"/>
</g>
<!-- PrismaService  -->
<g id="node5" class="node">
<title>PrismaService </title>
<polygon fill="#fb8072" stroke="black" points="459.36,-255 358.64,-255 358.64,-219 459.36,-219 459.36,-255"/>
<text text-anchor="middle" x="409" y="-232.8" font-family="Times,serif" font-size="14.00">PrismaService </text>
</g>
<!-- PrismaModule&#45;&gt;PrismaService  -->
<g id="edge4" class="edge">
<title>PrismaModule&#45;&gt;PrismaService </title>
<path fill="none" stroke="black" stroke-dasharray="5,2" d="M272.52,-187.22C272.52,-207.37 272.52,-237 272.52,-237 272.52,-237 348.57,-237 348.57,-237"/>
<polygon fill="black" stroke="black" points="348.57,-240.5 358.57,-237 348.57,-233.5 348.57,-240.5"/>
</g>
<!-- FXQLService -->
<g id="node3" class="node">
<title>FXQLService</title>
<ellipse fill="#fdb462" stroke="black" cx="102" cy="-104" rx="65.41" ry="18"/>
<text text-anchor="middle" x="102" y="-99.8" font-family="Times,serif" font-size="14.00">FXQLService</text>
</g>
<!-- FXQLService&#45;&gt;AppModule -->
<g id="edge2" class="edge">
<title>FXQLService&#45;&gt;AppModule</title>
<path fill="none" stroke="black" d="M159.19,-112.73C159.19,-112.73 159.19,-208.56 159.19,-208.56"/>
<polygon fill="black" stroke="black" points="155.69,-208.56 159.19,-218.56 162.69,-208.56 155.69,-208.56"/>
</g>
<!-- PrismaService -->
<g id="node4" class="node">
<title>PrismaService</title>
<ellipse fill="#fdb462" stroke="black" cx="252" cy="-104" rx="66.63" ry="18"/>
<text text-anchor="middle" x="252" y="-99.8" font-family="Times,serif" font-size="14.00">PrismaService</text>
</g>
<!-- PrismaService&#45;&gt;PrismaModule -->
<g id="edge5" class="edge">
<title>PrismaService&#45;&gt;PrismaModule</title>
<path fill="none" stroke="black" d="M261,-122.11C261,-122.11 261,-140.99 261,-140.99"/>
<polygon fill="black" stroke="black" points="257.5,-140.99 261,-150.99 264.5,-140.99 257.5,-140.99"/>
</g>
<!-- PrismaService&#45;&gt;AppModule -->
<g id="edge3" class="edge">
<title>PrismaService&#45;&gt;AppModule</title>
<path fill="none" stroke="black" d="M198.49,-114.88C198.49,-114.88 198.49,-208.87 198.49,-208.87"/>
<polygon fill="black" stroke="black" points="194.99,-208.87 198.49,-218.87 201.99,-208.87 194.99,-208.87"/>
</g>
</g>
</svg>
